<?xml version="1.0" encoding="UTF-8" standalone="no"?>
<!DOCTYPE svg PUBLIC "-//W3C//DTD SVG 1.1//EN"
 "http://www.w3.org/Graphics/SVG/1.1/DTD/svg11.dtd">
<!-- Generated by graphviz version 14.0.0 (20250921.2048)
 -->
<!-- Title: undo_tree Pages: 1 -->
<svg width="693pt" height="1173pt"
 viewBox="0.00 0.00 693.00 1173.00" xmlns="http://www.w3.org/2000/svg" xmlns:xlink="http://www.w3.org/1999/xlink">
<g id="graph0" class="graph" transform="scale(1 1) rotate(0) translate(4 1169)">
<title>undo_tree</title>
<polygon fill="white" stroke="none" points="-4,4 -4,-1169 688.62,-1169 688.62,4 -4,4"/>
<!-- history -->
<g id="node1" class="node">
<title>history</title>
<polygon fill="none" stroke="black" points="93.5,-1013 93.5,-1164.5 208.5,-1164.5 208.5,-1013 93.5,-1013"/>
<text xml:space="preserve" text-anchor="middle" x="151" y="-1147.2" font-family="monospace" font-size="14.00">UndoHistory</text>
<polyline fill="none" stroke="black" points="93.5,-1139.25 208.5,-1139.25"/>
<text xml:space="preserve" text-anchor="middle" x="151" y="-1121.95" font-family="monospace" font-size="14.00">current = 2</text>
<polyline fill="none" stroke="black" points="93.5,-1114 208.5,-1114"/>
<text xml:space="preserve" text-anchor="middle" x="151" y="-1096.7" font-family="monospace" font-size="14.00">next_seq = 4</text>
<polyline fill="none" stroke="black" points="93.5,-1088.75 208.5,-1088.75"/>
<text xml:space="preserve" text-anchor="middle" x="151" y="-1071.45" font-family="monospace" font-size="14.00">nodes[]</text>
<polyline fill="none" stroke="black" points="93.5,-1063.5 208.5,-1063.5"/>
<text xml:space="preserve" text-anchor="middle" x="151" y="-1046.2" font-family="monospace" font-size="14.00">ops[]</text>
<polyline fill="none" stroke="black" points="93.5,-1038.25 208.5,-1038.25"/>
<text xml:space="preserve" text-anchor="middle" x="151" y="-1020.95" font-family="monospace" font-size="14.00">text[]</text>
</g>
<!-- node0 -->
<g id="node2" class="node">
<title>node0</title>
<polygon fill="none" stroke="black" points="136.62,-807.25 136.62,-958.75 375.38,-958.75 375.38,-807.25 136.62,-807.25"/>
<text xml:space="preserve" text-anchor="middle" x="256" y="-941.45" font-family="monospace" font-size="14.00">UndoNode[0] seq=1</text>
<polyline fill="none" stroke="black" points="136.62,-933.5 375.38,-933.5"/>
<text xml:space="preserve" text-anchor="middle" x="256" y="-916.2" font-family="monospace" font-size="14.00">parent = NULL</text>
<polyline fill="none" stroke="black" points="136.62,-908.25 375.38,-908.25"/>
<text xml:space="preserve" text-anchor="middle" x="256" y="-890.95" font-family="monospace" font-size="14.00">first_child = 2</text>
<polyline fill="none" stroke="black" points="136.62,-883 375.38,-883"/>
<text xml:space="preserve" text-anchor="middle" x="256" y="-865.7" font-family="monospace" font-size="14.00">next_sibling = NULL</text>
<polyline fill="none" stroke="black" points="136.62,-857.75 375.38,-857.75"/>
<text xml:space="preserve" text-anchor="middle" x="256" y="-840.45" font-family="monospace" font-size="14.00">op_start=0 op_count=1</text>
<polyline fill="none" stroke="black" points="136.62,-832.5 375.38,-832.5"/>
<text xml:space="preserve" text-anchor="middle" x="256" y="-815.2" font-family="monospace" font-size="14.00">cursor_start=0 cursor_len=1</text>
</g>
<!-- history&#45;&gt;node0 -->
<g id="edge2" class="edge">
<title>history&#45;&gt;node0</title>
<path fill="none" stroke="black" stroke-dasharray="5,2" d="M189.65,-1012.75C196.97,-998.55 204.67,-983.6 212.13,-969.12"/>
<polygon fill="black" stroke="black" points="215.09,-971.02 216.56,-960.53 208.87,-967.81 215.09,-971.02"/>
<text xml:space="preserve" text-anchor="middle" x="239.65" y="-981.2" font-family="monospace" font-size="14.00">nodes[0]</text>
</g>
<!-- node2 -->
<g id="node4" class="node">
<title>node2</title>
<polygon fill="none" stroke="black" points="340.25,-601.5 340.25,-753 603.75,-753 603.75,-601.5 340.25,-601.5"/>
<text xml:space="preserve" text-anchor="middle" x="472" y="-735.7" font-family="monospace" font-size="14.00">UndoNode[2] seq=3</text>
<polyline fill="none" stroke="black" points="340.25,-727.75 603.75,-727.75"/>
<text xml:space="preserve" text-anchor="middle" x="472" y="-710.45" font-family="monospace" font-size="14.00">parent = 0</text>
<polyline fill="none" stroke="black" points="340.25,-702.5 603.75,-702.5"/>
<text xml:space="preserve" text-anchor="middle" x="472" y="-685.2" font-family="monospace" font-size="14.00">first_child = NULL</text>
<polyline fill="none" stroke="black" points="340.25,-677.25 603.75,-677.25"/>
<text xml:space="preserve" text-anchor="middle" x="472" y="-659.95" font-family="monospace" font-size="14.00">next_sibling = 1</text>
<polyline fill="none" stroke="black" points="340.25,-652 603.75,-652"/>
<text xml:space="preserve" text-anchor="middle" x="472" y="-634.7" font-family="monospace" font-size="14.00">op_start=2 op_count=1</text>
<polyline fill="none" stroke="black" points="340.25,-626.75 603.75,-626.75"/>
<text xml:space="preserve" text-anchor="middle" x="472" y="-609.45" font-family="monospace" font-size="14.00">cursor_start=1024 cursor_len=1</text>
</g>
<!-- history&#45;&gt;node2 -->
<g id="edge1" class="edge">
<title>history&#45;&gt;node2</title>
<path fill="none" stroke="blue" stroke-width="2" d="M208.92,-1067.15C260.25,-1046.48 334.51,-1010.36 384,-959.25 443.18,-898.13 450.74,-871.38 471,-788.75 472.9,-781 474.21,-772.85 475.07,-764.64"/>
<polygon fill="blue" stroke="blue" stroke-width="2" points="478.41,-766.7 475.73,-756.45 471.44,-766.13 478.41,-766.7"/>
<text xml:space="preserve" text-anchor="middle" x="495.35" y="-878.33" font-family="monospace" font-size="14.00">current</text>
</g>
<!-- op0 -->
<g id="node5" class="node">
<title>op0</title>
<polygon fill="none" stroke="black" points="28.5,-626.75 28.5,-727.75 143.5,-727.75 143.5,-626.75 28.5,-626.75"/>
<text xml:space="preserve" text-anchor="middle" x="86" y="-710.45" font-family="monospace" font-size="14.00">UndoOp[0]</text>
<polyline fill="none" stroke="black" points="28.5,-702.5 143.5,-702.5"/>
<text xml:space="preserve" text-anchor="middle" x="86" y="-685.2" font-family="monospace" font-size="14.00">pos=0 len=5</text>
<polyline fill="none" stroke="black" points="28.5,-677.25 143.5,-677.25"/>
<text xml:space="preserve" text-anchor="middle" x="86" y="-659.95" font-family="monospace" font-size="14.00">text_start=0</text>
<polyline fill="none" stroke="black" points="28.5,-652 143.5,-652"/>
<text xml:space="preserve" text-anchor="middle" x="86" y="-634.7" font-family="monospace" font-size="14.00">insert</text>
</g>
<!-- history&#45;&gt;op0 -->
<g id="edge3" class="edge">
<title>history&#45;&gt;op0</title>
<path fill="none" stroke="black" stroke-dasharray="5,2" d="M100.29,-1012.71C91.3,-995.81 83.28,-977.46 78.5,-959.25 59.12,-885.46 66.21,-797.01 74.66,-739.31"/>
<polygon fill="black" stroke="black" points="78.08,-740.11 76.13,-729.69 71.16,-739.05 78.08,-740.11"/>
<text xml:space="preserve" text-anchor="middle" x="103.25" y="-878.33" font-family="monospace" font-size="14.00">ops[0]</text>
</g>
<!-- textbuf -->
<g id="node8" class="node">
<title>textbuf</title>
<polygon fill="none" stroke="black" points="22.62,-0.5 22.62,-101.5 195.38,-101.5 195.38,-0.5 22.62,-0.5"/>
<text xml:space="preserve" text-anchor="middle" x="109" y="-84.2" font-family="monospace" font-size="14.00">text[]</text>
<polyline fill="none" stroke="black" points="22.62,-76.25 195.38,-76.25"/>
<text xml:space="preserve" text-anchor="middle" x="109" y="-58.95" font-family="monospace" font-size="14.00">[0..4] = &quot;hello&quot;</text>
<polyline fill="none" stroke="black" points="22.62,-51 195.38,-51"/>
<text xml:space="preserve" text-anchor="middle" x="109" y="-33.7" font-family="monospace" font-size="14.00">[5..10] = &quot; world&quot;</text>
<polyline fill="none" stroke="black" points="22.62,-25.75 195.38,-25.75"/>
<text xml:space="preserve" text-anchor="middle" x="109" y="-8.45" font-family="monospace" font-size="14.00">[11..16] = &quot; there&quot;</text>
</g>
<!-- history&#45;&gt;textbuf -->
<g id="edge4" class="edge">
<title>history&#45;&gt;textbuf</title>
<path fill="none" stroke="black" stroke-dasharray="5,2" d="M93.05,-1044.35C50.47,-1007.08 0,-949.16 0,-884 108,0 108,0 0,-205.25 0,-169.6 19.83,-136.49 42.57,-110.23"/>
<polygon fill="black" stroke="black" points="44.92,-112.84 49.02,-103.07 39.72,-108.15 44.92,-112.84"/>
<text xml:space="preserve" text-anchor="middle" x="28.88" y="-569.7" font-family="monospace" font-size="14.00">text[0]</text>
</g>
<!-- node0&#45;&gt;node2 -->
<g id="edge5" class="edge">
<title>node0:fchild&#45;&gt;node2</title>
<path fill="none" stroke="black" d="M376.38,-895.62C431.57,-895.62 358.54,-822.24 380.25,-771.5 381.46,-768.66 382.81,-765.86 384.27,-763.1"/>
<polygon fill="black" stroke="black" points="387.2,-765.02 389.24,-754.62 381.16,-761.48 387.2,-765.02"/>
<text xml:space="preserve" text-anchor="middle" x="425.62" y="-775.45" font-family="monospace" font-size="14.00">first_child</text>
</g>
<!-- node0&#45;&gt;op0 -->
<g id="edge9" class="edge">
<title>node0&#45;&gt;op0</title>
<path fill="none" stroke="gray" stroke-dasharray="5,2" d="M136.18,-819C113.41,-805.94 95.51,-794.43 92,-788.75 82.96,-774.14 79.51,-756.26 78.83,-739.17"/>
<polygon fill="gray" stroke="gray" points="82.34,-739.59 78.77,-729.61 75.34,-739.63 82.34,-739.59"/>
<text xml:space="preserve" text-anchor="middle" x="125" y="-775.45" font-family="monospace" font-size="14.00">op_start</text>
</g>
<!-- pool -->
<g id="node9" class="node">
<title>pool</title>
<polygon fill="none" stroke="black" points="240.75,-155.75 240.75,-256.75 537.25,-256.75 537.25,-155.75 240.75,-155.75"/>
<text xml:space="preserve" text-anchor="middle" x="389" y="-239.45" font-family="monospace" font-size="14.00">CursorPool.slab</text>
<polyline fill="none" stroke="black" points="240.75,-231.5 537.25,-231.5"/>
<text xml:space="preserve" text-anchor="middle" x="389" y="-214.2" font-family="monospace" font-size="14.00">[0] head=0 anchor=0 (pre seq=1)</text>
<polyline fill="none" stroke="black" points="240.75,-206.25 537.25,-206.25"/>
<text xml:space="preserve" text-anchor="middle" x="389" y="-188.95" font-family="monospace" font-size="14.00">[512] head=5 anchor=5 (pre seq=2)</text>
<polyline fill="none" stroke="black" points="240.75,-181 537.25,-181"/>
<text xml:space="preserve" text-anchor="middle" x="389" y="-163.7" font-family="monospace" font-size="14.00">[1024] head=5 anchor=5 (pre seq=3)</text>
</g>
<!-- node0&#45;&gt;pool -->
<g id="edge15" class="edge">
<title>node0&#45;&gt;pool</title>
<path fill="none" stroke="darkgreen" stroke-dasharray="1,5" d="M226.01,-807.09C197.23,-733.7 157.05,-626.71 149.5,-583 137.78,-515.16 141.43,-328.55 185,-275.25 186.12,-273.88 204.36,-267.4 229.51,-258.93"/>
<polygon fill="darkgreen" stroke="darkgreen" points="230.47,-262.3 238.84,-255.81 228.25,-255.66 230.47,-262.3"/>
<text xml:space="preserve" text-anchor="middle" x="207.25" y="-569.7" font-family="monospace" font-size="14.00">cursor_start=0</text>
</g>
<!-- node1 -->
<g id="node3" class="node">
<title>node1</title>
<polygon fill="none" stroke="black" points="180.38,-395.75 180.38,-547.25 435.62,-547.25 435.62,-395.75 180.38,-395.75"/>
<text xml:space="preserve" text-anchor="middle" x="308" y="-529.95" font-family="monospace" font-size="14.00">UndoNode[1] seq=2</text>
<polyline fill="none" stroke="black" points="180.38,-522 435.62,-522"/>
<text xml:space="preserve" text-anchor="middle" x="308" y="-504.7" font-family="monospace" font-size="14.00">parent = 0</text>
<polyline fill="none" stroke="black" points="180.38,-496.75 435.62,-496.75"/>
<text xml:space="preserve" text-anchor="middle" x="308" y="-479.45" font-family="monospace" font-size="14.00">first_child = NULL</text>
<polyline fill="none" stroke="black" points="180.38,-471.5 435.62,-471.5"/>
<text xml:space="preserve" text-anchor="middle" x="308" y="-454.2" font-family="monospace" font-size="14.00">next_sibling = NULL</text>
<polyline fill="none" stroke="black" points="180.38,-446.25 435.62,-446.25"/>
<text xml:space="preserve" text-anchor="middle" x="308" y="-428.95" font-family="monospace" font-size="14.00">op_start=1 op_count=1</text>
<polyline fill="none" stroke="black" points="180.38,-421 435.62,-421"/>
<text xml:space="preserve" text-anchor="middle" x="308" y="-403.7" font-family="monospace" font-size="14.00">cursor_start=512 cursor_len=1</text>
</g>
<!-- node1&#45;&gt;node0 -->
<g id="edge7" class="edge">
<title>node1:parent&#45;&gt;node0</title>
<path fill="none" stroke="black" d="M179.38,-509.38C162.31,-509.38 169.41,-534.68 180.38,-547.75 206.21,-578.54 243.56,-534.63 269,-565.75 283.26,-583.2 273.91,-708.17 265.35,-795.68"/>
<polygon fill="black" stroke="black" points="261.88,-795.15 264.38,-805.45 268.85,-795.85 261.88,-795.15"/>
<text xml:space="preserve" text-anchor="middle" x="301.12" y="-672.58" font-family="monospace" font-size="14.00">parent</text>
</g>
<!-- op1 -->
<g id="node6" class="node">
<title>op1</title>
<polygon fill="none" stroke="black" points="107.5,-155.75 107.5,-256.75 222.5,-256.75 222.5,-155.75 107.5,-155.75"/>
<text xml:space="preserve" text-anchor="middle" x="165" y="-239.45" font-family="monospace" font-size="14.00">UndoOp[1]</text>
<polyline fill="none" stroke="black" points="107.5,-231.5 222.5,-231.5"/>
<text xml:space="preserve" text-anchor="middle" x="165" y="-214.2" font-family="monospace" font-size="14.00">pos=5 len=6</text>
<polyline fill="none" stroke="black" points="107.5,-206.25 222.5,-206.25"/>
<text xml:space="preserve" text-anchor="middle" x="165" y="-188.95" font-family="monospace" font-size="14.00">text_start=5</text>
<polyline fill="none" stroke="black" points="107.5,-181 222.5,-181"/>
<text xml:space="preserve" text-anchor="middle" x="165" y="-163.7" font-family="monospace" font-size="14.00">insert</text>
</g>
<!-- node1&#45;&gt;op1 -->
<g id="edge10" class="edge">
<title>node1&#45;&gt;op1</title>
<path fill="none" stroke="gray" stroke-dasharray="5,2" d="M246.46,-395.38C242.39,-389.37 238.52,-383.29 235,-377.25 214.78,-342.53 197.52,-300.85 185.2,-267.46"/>
<polygon fill="gray" stroke="gray" points="188.59,-266.55 181.89,-258.34 182.01,-268.94 188.59,-266.55"/>
<text xml:space="preserve" text-anchor="middle" x="268" y="-321.57" font-family="monospace" font-size="14.00">op_start</text>
</g>
<!-- node1&#45;&gt;pool -->
<g id="edge16" class="edge">
<title>node1&#45;&gt;pool</title>
<path fill="none" stroke="darkgreen" stroke-dasharray="1,5" d="M303.75,-395.32C304.36,-357.79 309.36,-312.56 326,-275.25 327.32,-272.29 328.83,-269.37 330.47,-266.51"/>
<polygon fill="darkgreen" stroke="darkgreen" points="333.3,-268.59 335.77,-258.29 327.41,-264.8 333.3,-268.59"/>
<text xml:space="preserve" text-anchor="middle" x="392" y="-321.57" font-family="monospace" font-size="14.00">cursor_start=512</text>
</g>
<!-- node2&#45;&gt;node0 -->
<g id="edge8" class="edge">
<title>node2:parent&#45;&gt;node0</title>
<path fill="none" stroke="black" d="M339.25,-715.12C321.35,-715.12 334.09,-737.06 327,-753.5 320.81,-767.86 313.51,-782.71 305.99,-797"/>
<polygon fill="black" stroke="black" points="303.1,-794.99 301.47,-805.46 309.27,-798.29 303.1,-794.99"/>
<text xml:space="preserve" text-anchor="middle" x="343.49" y="-775.45" font-family="monospace" font-size="14.00">parent</text>
</g>
<!-- node2&#45;&gt;node1 -->
<g id="edge6" class="edge">
<title>node2:sibling&#45;&gt;node1</title>
<path fill="none" stroke="black" d="M339.25,-664.62C337.81,-664.62 328.99,-609.83 321.09,-558.76"/>
<polygon fill="black" stroke="black" points="324.58,-558.45 319.6,-549.1 317.67,-559.52 324.58,-558.45"/>
<text xml:space="preserve" text-anchor="middle" x="373.91" y="-569.7" font-family="monospace" font-size="14.00">next_sibling</text>
</g>
<!-- op2 -->
<g id="node7" class="node">
<title>op2</title>
<polygon fill="none" stroke="black" points="561.38,-275.75 561.38,-376.75 684.62,-376.75 684.62,-275.75 561.38,-275.75"/>
<text xml:space="preserve" text-anchor="middle" x="623" y="-359.45" font-family="monospace" font-size="14.00">UndoOp[2]</text>
<polyline fill="none" stroke="black" points="561.38,-351.5 684.62,-351.5"/>
<text xml:space="preserve" text-anchor="middle" x="623" y="-334.2" font-family="monospace" font-size="14.00">pos=5 len=6</text>
<polyline fill="none" stroke="black" points="561.38,-326.25 684.62,-326.25"/>
<text xml:space="preserve" text-anchor="middle" x="623" y="-308.95" font-family="monospace" font-size="14.00">text_start=11</text>
<polyline fill="none" stroke="black" points="561.38,-301 684.62,-301"/>
<text xml:space="preserve" text-anchor="middle" x="623" y="-283.7" font-family="monospace" font-size="14.00">insert</text>
</g>
<!-- node2&#45;&gt;op2 -->
<g id="edge11" class="edge">
<title>node2&#45;&gt;op2</title>
<path fill="none" stroke="gray" stroke-dasharray="5,2" d="M577.47,-601.35C592.96,-585.48 606.78,-567.48 616,-547.75 639.31,-497.84 638.64,-434.42 633.58,-388.42"/>
<polygon fill="gray" stroke="gray" points="637.07,-388.13 632.39,-378.62 630.12,-388.97 637.07,-388.13"/>
<text xml:space="preserve" text-anchor="middle" x="638.2" y="-569.7" font-family="monospace" font-size="14.00">op_start</text>
</g>
<!-- node2&#45;&gt;pool -->
<g id="edge17" class="edge">
<title>node2&#45;&gt;pool</title>
<path fill="none" stroke="darkgreen" stroke-dasharray="1,5" d="M470.81,-601.04C468.82,-489.03 464.42,-289.86 458,-275.25 456.7,-272.29 455.21,-269.39 453.56,-266.56"/>
<polygon fill="darkgreen" stroke="darkgreen" points="456.65,-264.9 448.22,-258.48 450.81,-268.75 456.65,-264.9"/>
<text xml:space="preserve" text-anchor="middle" x="539.91" y="-466.82" font-family="monospace" font-size="14.00">cursor_start=1024</text>
</g>
<!-- op0&#45;&gt;textbuf -->
<g id="edge12" class="edge">
<title>op0:ts&#45;&gt;textbuf</title>
<path fill="none" stroke="black" stroke-dasharray="1,5" d="M27.5,-664.62C10.44,-664.62 22.77,-642.32 28.5,-626.25 36.67,-603.35 53.45,-605.76 62,-583 86.08,-518.86 75.42,-343.59 80.25,-275.25 85.13,-206.19 82.21,-188.39 93,-120 93.36,-117.71 93.76,-115.38 94.18,-113.03"/>
<polygon fill="black" stroke="black" points="97.57,-113.94 96.06,-103.45 90.7,-112.59 97.57,-113.94"/>
<text xml:space="preserve" text-anchor="middle" x="109.12" y="-321.57" font-family="monospace" font-size="14.00">&quot;hello&quot;</text>
</g>
<!-- op1&#45;&gt;textbuf -->
<g id="edge13" class="edge">
<title>op1:ts&#45;&gt;textbuf</title>
<path fill="none" stroke="black" stroke-dasharray="1,5" d="M106.5,-193.62C89.32,-193.62 91.64,-151.44 97.29,-113.12"/>
<polygon fill="black" stroke="black" points="100.72,-113.85 98.81,-103.43 93.8,-112.76 100.72,-113.85"/>
<text xml:space="preserve" text-anchor="middle" x="128.95" y="-123.95" font-family="monospace" font-size="14.00">&quot; world&quot;</text>
</g>
<!-- op2&#45;&gt;textbuf -->
<g id="edge14" class="edge">
<title>op2:ts&#45;&gt;textbuf</title>
<path fill="none" stroke="black" stroke-dasharray="1,5" d="M560.38,-313.62C525.04,-313.62 569.16,-181.94 546,-155.25 502.3,-104.89 321.9,-75.73 206.98,-61.93"/>
<polygon fill="black" stroke="black" points="207.57,-58.47 197.23,-60.77 206.75,-65.42 207.57,-58.47"/>
<text xml:space="preserve" text-anchor="middle" x="586.09" y="-201.57" font-family="monospace" font-size="14.00">&quot; there&quot;</text>
</g>
</g>
</svg>
