<?xml version="1.0" encoding="UTF-8" standalone="no"?>
<!DOCTYPE svg PUBLIC "-//W3C//DTD SVG 1.1//EN"
 "http://www.w3.org/Graphics/SVG/1.1/DTD/svg11.dtd">
<!-- Generated by graphviz version 14.0.0 (20250921.2048)
 -->
<!-- Title: undo_nodes Pages: 1 -->
<svg width="757pt" height="577pt"
 viewBox="0.00 0.00 757.00 577.00" xmlns="http://www.w3.org/2000/svg" xmlns:xlink="http://www.w3.org/1999/xlink">
<g id="graph0" class="graph" transform="scale(1 1) rotate(0) translate(4 572.75)">
<title>undo_nodes</title>
<polygon fill="white" stroke="none" points="-4,4 -4,-572.75 753.24,-572.75 753.24,4 -4,4"/>
<!-- null_node -->
<g id="node1" class="node">
<title>null_node</title>
<polygon fill="none" stroke="black" points="172.88,-532.25 172.88,-568.25 353.88,-568.25 353.88,-532.25 172.88,-532.25"/>
<text xml:space="preserve" text-anchor="middle" x="263.38" y="-545.95" font-family="monospace" font-size="14.00">NULL (initial state)</text>
</g>
<!-- n0 -->
<g id="node2" class="node">
<title>n0</title>
<polygon fill="none" stroke="black" points="74,-355 74,-456 246.75,-456 246.75,-355 74,-355"/>
<text xml:space="preserve" text-anchor="middle" x="160.38" y="-438.7" font-family="monospace" font-size="14.00">UndoNode[0] seq=1</text>
<polyline fill="none" stroke="black" points="74,-430.75 246.75,-430.75"/>
<text xml:space="preserve" text-anchor="middle" x="160.38" y="-413.45" font-family="monospace" font-size="14.00">parent = NULL</text>
<polyline fill="none" stroke="black" points="74,-405.5 246.75,-405.5"/>
<text xml:space="preserve" text-anchor="middle" x="160.38" y="-388.2" font-family="monospace" font-size="14.00">first_child = 1</text>
<polyline fill="none" stroke="black" points="74,-380.25 246.75,-380.25"/>
<text xml:space="preserve" text-anchor="middle" x="160.38" y="-362.95" font-family="monospace" font-size="14.00">next_sibling = NULL</text>
</g>
<!-- null_node&#45;&gt;n0 -->
<!-- n3 -->
<g id="node5" class="node">
<title>n3</title>
<polygon fill="none" stroke="black" points="294.25,-355 294.25,-456 450.5,-456 450.5,-355 294.25,-355"/>
<text xml:space="preserve" text-anchor="middle" x="372.38" y="-438.7" font-family="monospace" font-size="14.00">UndoNode[3] seq=4</text>
<polyline fill="none" stroke="black" points="294.25,-430.75 450.5,-430.75"/>
<text xml:space="preserve" text-anchor="middle" x="372.38" y="-413.45" font-family="monospace" font-size="14.00">parent = NULL</text>
<polyline fill="none" stroke="black" points="294.25,-405.5 450.5,-405.5"/>
<text xml:space="preserve" text-anchor="middle" x="372.38" y="-388.2" font-family="monospace" font-size="14.00">first_child = 4</text>
<polyline fill="none" stroke="black" points="294.25,-380.25 450.5,-380.25"/>
<text xml:space="preserve" text-anchor="middle" x="372.38" y="-362.95" font-family="monospace" font-size="14.00">next_sibling = 0</text>
</g>
<!-- null_node&#45;&gt;n3 -->
<!-- n0&#45;&gt;null_node -->
<g id="edge7" class="edge">
<title>n0:p&#45;&gt;null_node</title>
<path fill="none" stroke="black" d="M247.75,-418.12C268.22,-418.12 267.73,-481.95 265.57,-520.54"/>
<polygon fill="black" stroke="black" points="262.09,-520.12 264.94,-530.33 269.07,-520.57 262.09,-520.12"/>
<text xml:space="preserve" text-anchor="middle" x="291.33" y="-489.45" font-family="monospace" font-size="14.00">parent</text>
</g>
<!-- n1 -->
<g id="node3" class="node">
<title>n1</title>
<polygon fill="none" stroke="black" points="0,-177.75 0,-278.75 172.75,-278.75 172.75,-177.75 0,-177.75"/>
<text xml:space="preserve" text-anchor="middle" x="86.38" y="-261.45" font-family="monospace" font-size="14.00">UndoNode[1] seq=2</text>
<polyline fill="none" stroke="black" points="0,-253.5 172.75,-253.5"/>
<text xml:space="preserve" text-anchor="middle" x="86.38" y="-236.2" font-family="monospace" font-size="14.00">parent = 0</text>
<polyline fill="none" stroke="black" points="0,-228.25 172.75,-228.25"/>
<text xml:space="preserve" text-anchor="middle" x="86.38" y="-210.95" font-family="monospace" font-size="14.00">first_child = 2</text>
<polyline fill="none" stroke="black" points="0,-203 172.75,-203"/>
<text xml:space="preserve" text-anchor="middle" x="86.38" y="-185.7" font-family="monospace" font-size="14.00">next_sibling = NULL</text>
</g>
<!-- n0&#45;&gt;n1 -->
<!-- n0&#45;&gt;n1 -->
<g id="edge13" class="edge">
<title>n0:fc&#45;&gt;n1</title>
<path fill="none" stroke="blue" d="M73,-392.88C55.94,-392.88 66.5,-369.82 74,-354.5 82.94,-336.24 100.68,-343.88 109.38,-325.5 114.61,-314.44 115.15,-302.09 113.21,-290.02"/>
<polygon fill="blue" stroke="blue" points="116.69,-289.55 111.11,-280.53 109.85,-291.05 116.69,-289.55"/>
<text xml:space="preserve" text-anchor="middle" x="159.08" y="-312.2" font-family="monospace" font-size="14.00">first_child</text>
</g>
<!-- n1&#45;&gt;n0 -->
<g id="edge8" class="edge">
<title>n1:p&#45;&gt;n0</title>
<path fill="none" stroke="black" d="M173.75,-240.88C202.18,-240.88 271.3,-274.11 248.38,-325.5 245.1,-332.85 240.76,-339.8 235.77,-346.3"/>
<polygon fill="black" stroke="black" points="233.29,-343.8 229.56,-353.72 238.66,-348.29 233.29,-343.8"/>
<text xml:space="preserve" text-anchor="middle" x="277.37" y="-312.2" font-family="monospace" font-size="14.00">parent</text>
</g>
<!-- n2 -->
<g id="node4" class="node">
<title>n2</title>
<polygon fill="none" stroke="black" points="0,-0.5 0,-101.5 172.75,-101.5 172.75,-0.5 0,-0.5"/>
<text xml:space="preserve" text-anchor="middle" x="86.38" y="-84.2" font-family="monospace" font-size="14.00">UndoNode[2] seq=3</text>
<polyline fill="none" stroke="black" points="0,-76.25 172.75,-76.25"/>
<text xml:space="preserve" text-anchor="middle" x="86.38" y="-58.95" font-family="monospace" font-size="14.00">parent = 1</text>
<polyline fill="none" stroke="black" points="0,-51 172.75,-51"/>
<text xml:space="preserve" text-anchor="middle" x="86.38" y="-33.7" font-family="monospace" font-size="14.00">first_child = NULL</text>
<polyline fill="none" stroke="black" points="0,-25.75 172.75,-25.75"/>
<text xml:space="preserve" text-anchor="middle" x="86.38" y="-8.45" font-family="monospace" font-size="14.00">next_sibling = NULL</text>
</g>
<!-- n1&#45;&gt;n2 -->
<!-- n1&#45;&gt;n2 -->
<g id="edge14" class="edge">
<title>n1:fc&#45;&gt;n2</title>
<path fill="none" stroke="blue" d="M173.75,-215.62C190.81,-215.62 178.92,-193.16 172.75,-177.25 166.58,-161.35 157.81,-161.93 147.62,-148.25 138.95,-136.61 130.22,-123.74 122.18,-111.3"/>
<polygon fill="blue" stroke="blue" points="125.32,-109.72 116.99,-103.18 119.42,-113.49 125.32,-109.72"/>
<text xml:space="preserve" text-anchor="middle" x="193" y="-134.95" font-family="monospace" font-size="14.00">first_child</text>
</g>
<!-- n2&#45;&gt;n1 -->
<g id="edge9" class="edge">
<title>n2:p&#45;&gt;n1</title>
<path fill="none" stroke="black" d="M173.75,-63.62C255.73,-63.62 280.49,-96.86 248.38,-148.25 233.37,-172.26 208.73,-189.17 183.15,-200.99"/>
<polygon fill="black" stroke="black" points="182.09,-197.64 174.31,-204.84 184.88,-204.06 182.09,-197.64"/>
<text xml:space="preserve" text-anchor="middle" x="281.05" y="-134.95" font-family="monospace" font-size="14.00">parent</text>
</g>
<!-- n3&#45;&gt;null_node -->
<g id="edge10" class="edge">
<title>n3:p&#45;&gt;null_node</title>
<path fill="none" stroke="black" d="M451.5,-418.12C468.56,-418.12 459.68,-442.12 450.5,-456.5 427.85,-491.97 387.26,-514.35 349.66,-528.21"/>
<polygon fill="black" stroke="black" points="348.86,-524.78 340.58,-531.39 351.18,-531.39 348.86,-524.78"/>
<text xml:space="preserve" text-anchor="middle" x="449.75" y="-489.45" font-family="monospace" font-size="14.00">parent</text>
</g>
<!-- n4 -->
<g id="node6" class="node">
<title>n4</title>
<polygon fill="none" stroke="black" points="278,-177.75 278,-278.75 450.75,-278.75 450.75,-177.75 278,-177.75"/>
<text xml:space="preserve" text-anchor="middle" x="364.38" y="-261.45" font-family="monospace" font-size="14.00">UndoNode[4] seq=5</text>
<polyline fill="none" stroke="black" points="278,-253.5 450.75,-253.5"/>
<text xml:space="preserve" text-anchor="middle" x="364.38" y="-236.2" font-family="monospace" font-size="14.00">parent = 3</text>
<polyline fill="none" stroke="black" points="278,-228.25 450.75,-228.25"/>
<text xml:space="preserve" text-anchor="middle" x="364.38" y="-210.95" font-family="monospace" font-size="14.00">first_child = NULL</text>
<polyline fill="none" stroke="black" points="278,-203 450.75,-203"/>
<text xml:space="preserve" text-anchor="middle" x="364.38" y="-185.7" font-family="monospace" font-size="14.00">next_sibling = NULL</text>
</g>
<!-- n3&#45;&gt;n4 -->
<!-- n3&#45;&gt;n4 -->
<g id="edge15" class="edge">
<title>n3:fc&#45;&gt;n4</title>
<path fill="none" stroke="blue" d="M451.5,-392.88C500.58,-392.88 460.26,-334.8 419.64,-287.85"/>
<polygon fill="blue" stroke="blue" points="422.3,-285.58 413.08,-280.37 417.04,-290.19 422.3,-285.58"/>
<text xml:space="preserve" text-anchor="middle" x="491.68" y="-312.2" font-family="monospace" font-size="14.00">first_child</text>
</g>
<!-- n5 -->
<g id="node7" class="node">
<title>n5</title>
<polygon fill="none" stroke="black" points="494,-177.75 494,-278.75 732.75,-278.75 732.75,-177.75 494,-177.75"/>
<text xml:space="preserve" text-anchor="middle" x="613.38" y="-261.45" font-family="monospace" font-size="14.00">UndoNode[5] seq=6 ★ current</text>
<polyline fill="none" stroke="black" points="494,-253.5 732.75,-253.5"/>
<text xml:space="preserve" text-anchor="middle" x="613.38" y="-236.2" font-family="monospace" font-size="14.00">parent = 3</text>
<polyline fill="none" stroke="black" points="494,-228.25 732.75,-228.25"/>
<text xml:space="preserve" text-anchor="middle" x="613.38" y="-210.95" font-family="monospace" font-size="14.00">first_child = NULL</text>
<polyline fill="none" stroke="black" points="494,-203 732.75,-203"/>
<text xml:space="preserve" text-anchor="middle" x="613.38" y="-185.7" font-family="monospace" font-size="14.00">next_sibling = 4</text>
</g>
<!-- n3&#45;&gt;n5 -->
<!-- n4&#45;&gt;n3 -->
<g id="edge11" class="edge">
<title>n4:p&#45;&gt;n3</title>
<path fill="none" stroke="black" d="M451.75,-240.88C471.11,-240.88 457.3,-267.1 472.38,-279.25 549.5,-341.45 609.35,-272.7 573.38,-325.5 548.28,-362.33 503.16,-381.99 462.02,-392.48"/>
<polygon fill="black" stroke="black" points="461.22,-389.07 452.3,-394.79 462.84,-395.89 461.22,-389.07"/>
<text xml:space="preserve" text-anchor="middle" x="608.36" y="-312.2" font-family="monospace" font-size="14.00">parent</text>
</g>
<!-- n5&#45;&gt;n3 -->
<g id="edge12" class="edge">
<title>n5:p&#45;&gt;n3</title>
<path fill="none" stroke="black" d="M733.75,-240.88C750.81,-240.88 741.81,-264.79 732.75,-279.25 709.01,-317.15 684.9,-308.89 643.38,-325.5 584.21,-349.17 515.22,-369.18 461.66,-383.14"/>
<polygon fill="black" stroke="black" points="461.09,-379.67 452.29,-385.56 462.84,-386.45 461.09,-379.67"/>
<text xml:space="preserve" text-anchor="middle" x="724.49" y="-312.2" font-family="monospace" font-size="14.00">parent</text>
</g>
</g>
</svg>
